<?xml version="1.0" encoding="UTF-8"?>
<svg width="24px" height="24px" viewBox="0 0 24 24" version="1.1" xmlns="http://www.w3.org/2000/svg">
    <g stroke="none" stroke-width="1" fill="none" fill-rule="evenodd">
        <path d="M12,4.5 C7,4.5 2.73,7.61 1,12 C2.73,16.39 7,19.5 12,19.5 C17,19.5 21.27,16.39 23,12 C21.27,7.61 17,4.5 12,4.5 Z M12,17 C10.34,17 9,15.66 9,14 C9,12.34 10.34,11 12,11 C13.66,11 15,12.34 15,14 C15,15.66 13.66,17 12,17 Z M12,9 C9.24,9 7,11.24 7,14 C7,16.76 9.24,19 12,19 C14.76,19 17,16.76 17,14 C17,11.24 14.76,9 12,9 Z" fill="#FFFFFF" fill-rule="nonzero"></path>
        <circle fill="#FFFFFF" cx="12" cy="14" r="2"></circle>
        <path d="M12,4.5 C7,4.5 2.73,7.61 1,12 C2.73,16.39 7,19.5 12,19.5 C17,19.5 21.27,16.39 23,12 C21.27,7.61 17,4.5 12,4.5 Z M12,17 C10.34,17 9,15.66 9,14 C9,12.34 10.34,11 12,11 C13.66,11 15,12.34 15,14 C15,15.66 13.66,17 12,17 Z M12,9 C9.24,9 7,11.24 7,14 C7,16.76 9.24,19 12,19 C14.76,19 17,16.76 17,14 C17,11.24 14.76,9 12,9 Z" stroke="#000000" stroke-width="0.5" fill-rule="nonzero"></path>
    </g>
</svg> 